<svg width="20" height="20" viewBox="0 0 20 20" fill="none" xmlns="http://www.w3.org/2000/svg">
<path d="M7.57913 17.5052C7.05513 17.4768 6.56203 17.2483 6.20163 16.8668C5.77046 16.452 5.38569 15.9916 5.05413 15.4935C4.53619 14.7519 4.12679 13.9401 3.8383 13.0827C3.5118 12.1603 3.34004 11.1903 3.32996 10.2118C3.3046 9.25181 3.54234 8.30313 4.01746 7.46851C4.36544 6.86693 4.86178 6.36456 5.45913 6.00935C6.04987 5.65565 6.72397 5.46527 7.41246 5.45768C7.93148 5.48839 8.44151 5.60702 8.9208 5.80852C9.3033 5.97685 9.70496 6.09518 10.1175 6.16018C10.5725 6.06486 11.0171 5.92531 11.445 5.74352C11.9513 5.54579 12.4875 5.43507 13.0308 5.41602C13.1033 5.41602 13.175 5.41602 13.2441 5.42435C14.4358 5.45852 15.5441 6.04352 16.2441 7.00768C15.6978 7.29987 15.2432 7.73784 14.9309 8.2729C14.6186 8.80795 14.4608 9.41914 14.475 10.0385C14.4695 10.5121 14.5645 10.9815 14.7537 11.4157C14.9429 11.85 15.2219 12.2392 15.5725 12.5577C15.8916 12.8616 16.2632 13.1053 16.6691 13.2768C16.5858 13.5268 16.49 13.7685 16.3883 14.0118C16.1575 14.5496 15.8727 15.0625 15.5383 15.5427C15.2221 16.0237 14.8541 16.4686 14.4408 16.8693C14.0638 17.2434 13.5613 17.4641 13.0308 17.4885C12.5811 17.4686 12.1393 17.3631 11.7291 17.1777C11.2868 16.985 10.8114 16.8795 10.3291 16.8668C9.83321 16.8766 9.34378 16.9816 8.88746 17.176C8.49333 17.3538 8.07225 17.4645 7.64163 17.5035L7.57913 17.5052ZM10.2041 5.41602C10.1416 5.41602 10.0791 5.41601 10.0166 5.40851C10.0035 5.30932 9.99652 5.20941 9.9958 5.10935C10.0231 4.27696 10.3484 3.48204 10.9125 2.86935C11.228 2.51723 11.6104 2.2314 12.0375 2.02852C12.4354 1.82364 12.8703 1.7004 13.3166 1.66602C13.3291 1.77518 13.3291 1.88185 13.3291 1.98352C13.3174 2.80282 13.0096 3.5902 12.4625 4.20018C12.1976 4.55537 11.8581 4.84826 11.468 5.0583C11.0779 5.26834 10.6465 5.39044 10.2041 5.41602Z" fill="#1A1A1A"/>
</svg>
