<svg width="151" height="18" viewBox="0 0 151 18" fill="none" xmlns="http://www.w3.org/2000/svg">
<path d="M0 17.751V0.239417H7.59293C8.92683 0.239417 10.047 0.41898 10.9533 0.778105C11.8654 1.13723 12.5523 1.64456 13.014 2.30011C13.4814 2.95566 13.7152 3.72806 13.7152 4.61732C13.7152 5.26147 13.5727 5.84861 13.2876 6.37875C13.0083 6.90888 12.615 7.35351 12.1076 7.71264C11.6003 8.06607 11.0075 8.31118 10.3291 8.44799V8.619C11.0816 8.64751 11.7656 8.83847 12.3813 9.19189C12.9969 9.53962 13.4871 10.0213 13.852 10.6369C14.2168 11.2469 14.3992 11.9651 14.3992 12.7917C14.3992 13.7494 14.1484 14.6016 13.6468 15.3483C13.1508 16.0951 12.444 16.6822 11.5262 17.1097C10.6084 17.5373 9.51397 17.751 8.24278 17.751H0ZM4.75413 13.9546H6.97729C7.77534 13.9546 8.37389 13.8064 8.77291 13.5099C9.17194 13.2078 9.37146 12.7632 9.37146 12.1761C9.37146 11.7656 9.2774 11.4179 9.08929 11.1329C8.90117 10.8479 8.63325 10.6312 8.28553 10.483C7.94351 10.3348 7.53023 10.2607 7.04569 10.2607H4.75413V13.9546ZM4.75413 7.31931H6.70367C7.1198 7.31931 7.48747 7.25376 7.8067 7.12265C8.12592 6.99154 8.37389 6.80343 8.5506 6.55831C8.73301 6.30749 8.82422 6.00252 8.82422 5.6434C8.82422 5.10186 8.6304 4.68858 8.24278 4.40356C7.85515 4.11284 7.36492 3.96748 6.77207 3.96748H4.75413V7.31931Z" fill="#1A1A1A"/>
<path d="M33.0481 8.99523C33.0481 10.9448 32.669 12.5893 31.9108 13.9289C31.1527 15.2628 30.1295 16.2746 28.8412 16.9644C27.5529 17.6484 26.1164 17.9905 24.5317 17.9905C22.9356 17.9905 21.4934 17.6456 20.2051 16.9558C18.9225 16.2604 17.9021 15.2457 17.1439 13.9118C16.3915 12.5722 16.0153 10.9334 16.0153 8.99523C16.0153 7.04569 16.3915 5.40398 17.1439 4.07009C17.9021 2.73049 18.9225 1.71867 20.2051 1.03462C21.4934 0.344874 22.9356 0 24.5317 0C26.1164 0 27.5529 0.344874 28.8412 1.03462C30.1295 1.71867 31.1527 2.73049 31.9108 4.07009C32.669 5.40398 33.0481 7.04569 33.0481 8.99523ZM28.1571 8.99523C28.1571 7.94636 28.0175 7.06279 27.7381 6.34454C27.4645 5.62059 27.0569 5.07336 26.5154 4.70283C25.9796 4.3266 25.3183 4.13849 24.5317 4.13849C23.745 4.13849 23.0809 4.3266 22.5394 4.70283C22.0035 5.07336 21.596 5.62059 21.3166 6.34454C21.043 7.06279 20.9062 7.94636 20.9062 8.99523C20.9062 10.0441 21.043 10.9305 21.3166 11.6545C21.596 12.3727 22.0035 12.92 22.5394 13.2962C23.0809 13.6667 23.745 13.852 24.5317 13.852C25.3183 13.852 25.9796 13.6667 26.5154 13.2962C27.0569 12.92 27.4645 12.3727 27.7381 11.6545C28.0175 10.9305 28.1571 10.0441 28.1571 8.99523Z" fill="#1A1A1A"/>
<path d="M52.2121 8.99523C52.2121 10.9448 51.833 12.5893 51.0749 13.9289C50.3167 15.2628 49.2935 16.2746 48.0052 16.9644C46.7169 17.6484 45.2804 17.9905 43.6957 17.9905C42.0996 17.9905 40.6574 17.6456 39.3691 16.9558C38.0865 16.2604 37.0661 15.2457 36.308 13.9118C35.5555 12.5722 35.1793 10.9334 35.1793 8.99523C35.1793 7.04569 35.5555 5.40398 36.308 4.07009C37.0661 2.73049 38.0865 1.71867 39.3691 1.03462C40.6574 0.344874 42.0996 0 43.6957 0C45.2804 0 46.7169 0.344874 48.0052 1.03462C49.2935 1.71867 50.3167 2.73049 51.0749 4.07009C51.833 5.40398 52.2121 7.04569 52.2121 8.99523ZM47.3211 8.99523C47.3211 7.94636 47.1815 7.06279 46.9022 6.34454C46.6285 5.62059 46.221 5.07336 45.6794 4.70283C45.1436 4.3266 44.4824 4.13849 43.6957 4.13849C42.909 4.13849 42.2449 4.3266 41.7034 4.70283C41.1676 5.07336 40.76 5.62059 40.4807 6.34454C40.207 7.06279 40.0702 7.94636 40.0702 8.99523C40.0702 10.0441 40.207 10.9305 40.4807 11.6545C40.76 12.3727 41.1676 12.92 41.7034 13.2962C42.2449 13.6667 42.909 13.852 43.6957 13.852C44.4824 13.852 45.1436 13.6667 45.6794 13.2962C46.221 12.92 46.6285 12.3727 46.9022 11.6545C47.1815 10.9305 47.3211 10.0441 47.3211 8.99523Z" fill="#1A1A1A"/>
<path d="M54.4117 17.751V0.239417H59.1659V7.31931H59.4053L64.6724 0.239417H70.2132L64.2962 8.03756L70.35 17.751H64.6724L60.7392 11.1842L59.1659 13.2363V17.751H54.4117Z" fill="#1A1A1A"/>
<path d="M80.8288 5.7118C80.7832 5.14176 80.5694 4.69713 80.1875 4.37791C79.8113 4.05868 79.2384 3.89907 78.4688 3.89907C77.9786 3.89907 77.5767 3.95893 77.2632 4.07863C76.9554 4.19264 76.7274 4.3494 76.5792 4.54892C76.4309 4.74843 76.354 4.97645 76.3483 5.23297C76.3369 5.44388 76.3739 5.63484 76.4594 5.80586C76.5507 5.97117 76.6932 6.12223 76.887 6.25904C77.0808 6.39015 77.3288 6.50986 77.6309 6.61816C77.933 6.72647 78.2921 6.82338 78.7083 6.90888L80.1448 7.21671C81.1138 7.42192 81.9432 7.69269 82.633 8.02901C83.3227 8.36534 83.8871 8.76151 84.326 9.21754C84.7649 9.66788 85.087 10.1752 85.2922 10.7396C85.5031 11.3039 85.6114 11.9195 85.6171 12.5865C85.6114 13.738 85.3236 14.7127 84.7535 15.5108C84.1835 16.3088 83.3683 16.9159 82.3081 17.3321C81.2535 17.7482 79.9851 17.9563 78.503 17.9563C76.981 17.9563 75.6528 17.7311 74.5185 17.2808C73.3898 16.8304 72.5119 16.1378 71.8849 15.203C71.2635 14.2624 70.95 13.0596 70.9443 11.5946H75.459C75.4875 12.1304 75.6215 12.5808 75.8609 12.9456C76.1003 13.3104 76.4366 13.5869 76.8699 13.775C77.3088 13.9631 77.8304 14.0572 78.4346 14.0572C78.942 14.0572 79.3667 13.9945 79.7087 13.8691C80.0507 13.7437 80.3101 13.5698 80.4868 13.3475C80.6635 13.1252 80.7547 12.8715 80.7604 12.5865C80.7547 12.3186 80.6663 12.0848 80.4953 11.8853C80.33 11.6801 80.0564 11.4977 79.6745 11.3381C79.2925 11.1728 78.7767 11.0189 78.1268 10.8764L76.3825 10.5001C74.832 10.1638 73.6092 9.60232 72.7143 8.81567C71.825 8.02331 71.3832 6.94309 71.3889 5.57499C71.3832 4.46341 71.6797 3.49149 72.2782 2.65924C72.8824 1.82128 73.7176 1.16858 74.7835 0.701149C75.8552 0.233716 77.0836 0 78.4688 0C79.8825 0 81.1053 0.236567 82.137 0.7097C83.1688 1.18283 83.964 1.84978 84.5227 2.71054C85.087 3.5656 85.372 4.56602 85.3777 5.7118H80.8288Z" fill="#1A1A1A"/>
<path d="M86.9468 4.07009V0.239417H102.167V4.07009H96.8997V17.751H92.2139V4.07009H86.9468Z" fill="#1A1A1A"/>
<path d="M120.097 8.99523C120.097 10.9448 119.718 12.5893 118.96 13.9289C118.202 15.2628 117.179 16.2746 115.891 16.9644C114.602 17.6484 113.166 17.9905 111.581 17.9905C109.985 17.9905 108.543 17.6456 107.254 16.9558C105.972 16.2604 104.951 15.2457 104.193 13.9118C103.441 12.5722 103.065 10.9334 103.065 8.99523C103.065 7.04569 103.441 5.40398 104.193 4.07009C104.951 2.73049 105.972 1.71867 107.254 1.03462C108.543 0.344874 109.985 0 111.581 0C113.166 0 114.602 0.344874 115.891 1.03462C117.179 1.71867 118.202 2.73049 118.96 4.07009C119.718 5.40398 120.097 7.04569 120.097 8.99523ZM115.206 8.99523C115.206 7.94636 115.067 7.06279 114.788 6.34454C114.514 5.62059 114.106 5.07336 113.565 4.70283C113.029 4.3266 112.368 4.13849 111.581 4.13849C110.794 4.13849 110.13 4.3266 109.589 4.70283C109.053 5.07336 108.645 5.62059 108.366 6.34454C108.092 7.06279 107.956 7.94636 107.956 8.99523C107.956 10.0441 108.092 10.9305 108.366 11.6545C108.645 12.3727 109.053 12.92 109.589 13.2962C110.13 13.6667 110.794 13.852 111.581 13.852C112.368 13.852 113.029 13.6667 113.565 13.2962C114.106 12.92 114.514 12.3727 114.788 11.6545C115.067 10.9305 115.206 10.0441 115.206 8.99523Z" fill="#1A1A1A"/>
<path d="M122.297 17.751V0.239417H129.856C131.155 0.239417 132.293 0.475983 133.267 0.949117C134.242 1.42225 135 2.10345 135.542 2.99271C136.083 3.88197 136.354 4.94795 136.354 6.19063C136.354 7.44472 136.075 8.50214 135.516 9.3629C134.963 10.2237 134.185 10.8735 133.182 11.3124C132.184 11.7514 131.019 11.9708 129.685 11.9708H125.17V8.27698H128.727C129.286 8.27698 129.762 8.20857 130.155 8.07176C130.554 7.92925 130.859 7.70409 131.07 7.39627C131.287 7.08845 131.395 6.68657 131.395 6.19063C131.395 5.689 131.287 5.28142 131.07 4.9679C130.859 4.64868 130.554 4.41496 130.155 4.26675C129.762 4.11284 129.286 4.03588 128.727 4.03588H127.051V17.751H122.297ZM132.558 9.71348L136.936 17.751H131.771L127.496 9.71348H132.558Z" fill="#1A1A1A"/>
<path d="M138.381 17.751V0.239417H151.001V4.07009H143.135V7.0799H150.352V10.9106H143.135V13.9204H150.967V17.751H138.381Z" fill="#1A1A1A"/>
</svg>
