<svg width="20" height="20" viewBox="0 0 20 20" fill="none" xmlns="http://www.w3.org/2000/svg">
<path fill-rule="evenodd" clip-rule="evenodd" d="M6.18745 16.5176C6.53911 16.5176 6.82495 16.8034 6.82495 17.1551C6.82495 17.5067 6.53911 17.7917 6.18745 17.7917C5.83578 17.7917 5.55078 17.5067 5.55078 17.1551C5.55078 16.8034 5.83578 16.5176 6.18745 16.5176Z" stroke="#FAFAFA" stroke-width="1.5" stroke-linecap="round" stroke-linejoin="round"/>
<path fill-rule="evenodd" clip-rule="evenodd" d="M15.5633 16.5176C15.9149 16.5176 16.2008 16.8034 16.2008 17.1551C16.2008 17.5067 15.9149 17.7917 15.5633 17.7917C15.2116 17.7917 14.9258 17.5067 14.9258 17.1551C14.9258 16.8034 15.2116 16.5176 15.5633 16.5176Z" stroke="#FAFAFA" stroke-width="1.5" stroke-linecap="round" stroke-linejoin="round"/>
<path d="M2.29297 2.70898L4.0263 3.00898L4.8288 12.5698C4.8938 13.349 5.54464 13.9473 6.3263 13.9473H15.4196C16.1663 13.9473 16.7996 13.399 16.9071 12.659L17.698 7.19398C17.7955 6.51982 17.273 5.91648 16.5921 5.91648H4.30464" stroke="#FAFAFA" stroke-width="1.5" stroke-linecap="round" stroke-linejoin="round"/>
<path d="M11.7734 8.99675H14.0843" stroke="#FAFAFA" stroke-width="1.5" stroke-linecap="round" stroke-linejoin="round"/>
</svg>
