<svg width="24" height="24" viewBox="0 0 24 24" fill="none" xmlns="http://www.w3.org/2000/svg">
<path fill-rule="evenodd" clip-rule="evenodd" d="M17 2H7C4.23858 2 2 4.23858 2 7V17C2 19.7614 4.23858 22 7 22H17C19.7614 22 22 19.7614 22 17V7C22 4.23858 19.7614 2 17 2ZM16.4446 11.3C16.5817 12.2247 16.4238 13.1692 15.9932 13.9989C15.5627 14.8287 14.8814 15.5016 14.0464 15.9219C13.2114 16.3422 12.2651 16.4885 11.3422 16.34C10.4192 16.1914 9.56657 15.7557 8.90554 15.0947C8.24452 14.4336 7.80876 13.581 7.66024 12.658C7.51172 11.7351 7.65802 10.7888 8.07831 9.95378C8.4986 9.11876 9.17148 8.43752 10.0013 8.00696C10.831 7.57641 11.7754 7.41846 12.7002 7.55559C13.6434 7.69546 14.5167 8.13499 15.1909 8.80926C15.8652 9.48353 16.3047 10.3568 16.4446 11.3ZM18.1111 4.88885C17.5589 4.88885 17.1111 5.33657 17.1111 5.88885C17.1111 6.44114 17.5589 6.88885 18.1111 6.88885H18.1225C18.6748 6.88885 19.1225 6.44114 19.1225 5.88885C19.1225 5.33657 18.6748 4.88885 18.1225 4.88885H18.1111Z" fill="#1A1A1A"/>
</svg>
